<svg class="logo" width="170" height="32" viewBox="0 0 190 36" fill="#ffd040" xmlns="http://www.w3.org/2000/svg">
  <path d="M40.0866 4.68482C38.2902 3.5825 35.863 3 33.0672 3C28.7842 3 24.0653 4.35865 19.8276 6.72206L19.7979 6.71083C19.7979 6.71083 19.7937 6.73344 19.7914 6.74423C18.5086 7.4617 17.2656 8.2629 16.0981 9.15731C9.22112 14.4248 7.29519 20.6748 8.92004 24.0156C7.14142 27.0728 6.0457 30.2332 6 33.9767C9.41949 27.421 11.4719 22.108 22.6146 13.1637C19.4309 13.8501 13.9281 17.1057 10.2271 22.0459C9.87793 19.156 12.1477 14.4895 17.2033 10.6174C17.8435 10.127 18.5092 9.66864 19.1886 9.23374C18.6577 10.8934 18.8269 10.4806 17.7254 12.8076C19.3543 11.2566 20.4268 10.2995 22.035 7.64145C24.123 6.60964 26.2948 5.83844 28.4482 5.37235C28.0919 6.56071 27.4137 8.57466 26.4955 10.1669C26.4955 10.1669 28.8258 9.66435 30.7518 9.77788C29.6995 10.9459 28.7527 12.2094 27.7926 13.5012C26.4777 15.2696 25.1184 17.0983 23.3778 18.8005C23.1683 19.0054 22.968 19.1912 22.7649 19.383C20.0902 19.1254 18.3235 20.1315 16.6683 21.9089C17.9737 21.2966 19.7273 20.7924 20.8266 21.0959C18.8008 22.7579 15.6106 24.9488 12.9893 24.7684C12.4922 25.5295 12.4608 25.5528 11.9144 26.4722C16.1664 27.537 21.507 23.1905 24.6498 20.1161C26.4926 18.3131 27.8964 16.4257 29.2534 14.6012C32.0481 10.8427 34.4616 7.5974 39.8153 6.3624L42 5.85877L40.0866 4.68482Z" class="logo-mark"></path>
  <path d="M43.488 30.328V31H36.552V30.328L37.872 30.16C38.128 30.128 38.28 30.064 38.328 29.968C38.376 29.856 38.4 29.528 38.4 28.984V20.848C38.4 20.304 38.376 19.984 38.328 19.888C38.28 19.776 38.128 19.704 37.872 19.672L36.552 19.504V18.832H38.4V17.536C38.4 16.768 38.528 16.04 38.784 15.352C39.056 14.648 39.504 14.08 40.128 13.648C40.768 13.216 41.624 13 42.696 13C43.672 13 44.472 13.168 45.096 13.504C45.736 13.84 46.192 14.288 46.464 14.848C46.752 15.408 46.84 16.016 46.728 16.672L44.088 17.056C44.248 15.856 44.2 15.024 43.944 14.56C43.704 14.08 43.288 13.84 42.696 13.84C42.376 13.84 42.096 13.928 41.856 14.104C41.632 14.28 41.456 14.6 41.328 15.064C41.216 15.512 41.16 16.176 41.16 17.056V18.832H44.76V19.672H41.16V28.984C41.16 29.528 41.184 29.856 41.232 29.968C41.28 30.064 41.432 30.128 41.688 30.16L43.488 30.328ZM55.8604 28.144C55.5724 29.264 55.0364 30.064 54.2524 30.544C53.4684 31.008 52.5564 31.24 51.5164 31.24C49.5964 31.24 48.1564 30.688 47.1964 29.584C46.2364 28.464 45.7564 26.984 45.7564 25.144V24.664C45.7564 22.824 46.2044 21.352 47.1004 20.248C48.0124 19.144 49.3244 18.592 51.0364 18.592C51.9964 18.592 52.8444 18.784 53.5804 19.168C54.3324 19.536 54.9164 20.072 55.3324 20.776C55.7644 21.48 55.9804 22.336 55.9804 23.344C55.9804 23.584 55.9644 23.84 55.9324 24.112C55.9164 24.384 55.8764 24.656 55.8124 24.928H48.7084V25.624C48.7084 27.32 48.9484 28.544 49.4284 29.296C49.9084 30.032 50.6844 30.4 51.7564 30.4C52.4444 30.4 53.0284 30.2 53.5084 29.8C53.9884 29.384 54.2604 28.688 54.3244 27.712L55.8604 28.144ZM51.0364 19.432C50.2524 19.432 49.6684 19.792 49.2844 20.512C48.9004 21.232 48.7084 22.424 48.7084 24.088H53.0524C53.1164 23.768 53.1564 23.472 53.1724 23.2C53.2044 22.912 53.2204 22.648 53.2204 22.408C53.2204 21.384 53.0204 20.632 52.6204 20.152C52.2204 19.672 51.6924 19.432 51.0364 19.432ZM69.9795 30.4C69.7235 30.64 69.4115 30.84 69.0435 31C68.6915 31.16 68.2595 31.24 67.7475 31.24C67.0915 31.24 66.5395 31.096 66.0915 30.808C65.6595 30.52 65.3715 30.112 65.2275 29.584C64.6995 30.16 64.1155 30.584 63.4755 30.856C62.8515 31.112 62.2115 31.24 61.5555 31.24C60.4515 31.24 59.6275 30.936 59.0835 30.328C58.5395 29.704 58.2675 28.928 58.2675 28C58.2675 27.056 58.6115 26.296 59.2995 25.72C59.9875 25.128 61.2035 24.832 62.9475 24.832H65.1315V22.888C65.1315 21.56 64.9555 20.656 64.6035 20.176C64.2675 19.68 63.7955 19.432 63.1875 19.432C62.7875 19.432 62.4195 19.536 62.0835 19.744C61.7475 19.936 61.5075 20.304 61.3635 20.848C61.2355 21.376 61.2595 22.144 61.4355 23.152L58.7955 22.768C58.6675 22.032 58.7475 21.352 59.0355 20.728C59.3395 20.088 59.8435 19.576 60.5475 19.192C61.2515 18.792 62.1475 18.592 63.2355 18.592C64.4675 18.592 65.4195 18.792 66.0915 19.192C66.7635 19.592 67.2275 20.12 67.4835 20.776C67.7555 21.432 67.8915 22.136 67.8915 22.888V28.432C67.8915 29.248 67.9635 29.76 68.1075 29.968C68.2515 30.176 68.4115 30.28 68.5875 30.28C68.8755 30.28 69.1955 30.112 69.5475 29.776L69.9795 30.4ZM62.6115 29.968C63.0275 29.968 63.4355 29.864 63.8355 29.656C64.2515 29.432 64.6835 29.024 65.1315 28.432V25.672H63.3315C62.5475 25.672 61.9795 25.856 61.6275 26.224C61.2755 26.592 61.0995 27.168 61.0995 27.952C61.0995 28.592 61.2275 29.088 61.4835 29.44C61.7395 29.792 62.1155 29.968 62.6115 29.968ZM79.1976 28.504C78.9896 29.48 78.5896 30.184 77.9976 30.616C77.4216 31.032 76.7176 31.24 75.8856 31.24C75.0376 31.24 74.3416 31.056 73.7976 30.688C73.2536 30.304 72.8536 29.8 72.5976 29.176C72.3416 28.552 72.2136 27.888 72.2136 27.184V20.848C72.2136 20.304 72.1896 19.984 72.1416 19.888C72.0936 19.776 71.9416 19.704 71.6856 19.672L70.3656 19.504V18.832H72.2136V16.048L74.9736 15.496V18.832H78.8136V19.672H74.9736V27.664C74.9736 28.688 75.1016 29.4 75.3576 29.8C75.6136 30.184 75.9416 30.376 76.3416 30.376C76.7576 30.376 77.0776 30.216 77.3016 29.896C77.5416 29.576 77.6936 28.992 77.7576 28.144L79.1976 28.504ZM94.0903 30.328V31H87.6343V30.328L88.9543 30.16C89.2103 30.128 89.3623 30.064 89.4103 29.968C89.4583 29.856 89.4823 29.528 89.4823 28.984V22.936C89.4823 21.832 89.3143 21.032 88.9783 20.536C88.6583 20.024 88.1783 19.768 87.5383 19.768C87.2663 19.768 86.9463 19.84 86.5783 19.984C86.2263 20.112 85.8663 20.352 85.4983 20.704C85.1463 21.056 84.8343 21.576 84.5623 22.264V28.984C84.5623 29.528 84.5863 29.856 84.6343 29.968C84.6823 30.064 84.8343 30.128 85.0903 30.16L86.4103 30.328V31H79.9543V30.328L81.2743 30.16C81.5303 30.128 81.6823 30.064 81.7303 29.968C81.7783 29.856 81.8023 29.528 81.8023 28.984V15.256C81.8023 14.712 81.7783 14.392 81.7303 14.296C81.6823 14.184 81.5303 14.112 81.2743 14.08L79.9543 13.912V13.24H84.5623V20.704C85.0263 19.968 85.6023 19.432 86.2903 19.096C86.9943 18.76 87.6983 18.592 88.4023 18.592C89.5863 18.592 90.5223 18.968 91.2103 19.72C91.8983 20.472 92.2423 21.536 92.2423 22.912V28.984C92.2423 29.528 92.2663 29.856 92.3143 29.968C92.3623 30.064 92.5143 30.128 92.7703 30.16L94.0903 30.328ZM105.735 28.144C105.447 29.264 104.911 30.064 104.127 30.544C103.343 31.008 102.431 31.24 101.391 31.24C99.4714 31.24 98.0314 30.688 97.0714 29.584C96.1114 28.464 95.6314 26.984 95.6314 25.144V24.664C95.6314 22.824 96.0794 21.352 96.9754 20.248C97.8874 19.144 99.1994 18.592 100.911 18.592C101.871 18.592 102.719 18.784 103.455 19.168C104.207 19.536 104.791 20.072 105.207 20.776C105.639 21.48 105.855 22.336 105.855 23.344C105.855 23.584 105.839 23.84 105.807 24.112C105.791 24.384 105.751 24.656 105.687 24.928H98.5834V25.624C98.5834 27.32 98.8234 28.544 99.3034 29.296C99.7834 30.032 100.559 30.4 101.631 30.4C102.319 30.4 102.903 30.2 103.383 29.8C103.863 29.384 104.135 28.688 104.199 27.712L105.735 28.144ZM100.911 19.432C100.127 19.432 99.5434 19.792 99.1594 20.512C98.7754 21.232 98.5834 22.424 98.5834 24.088H102.927C102.991 23.768 103.031 23.472 103.047 23.2C103.079 22.912 103.095 22.648 103.095 22.408C103.095 21.384 102.895 20.632 102.495 20.152C102.095 19.672 101.567 19.432 100.911 19.432ZM107.615 19.504V18.832H112.079V20.8C113.055 19.328 114.215 18.592 115.559 18.592C116.055 18.592 116.535 18.752 116.999 19.072C117.463 19.376 117.847 19.952 118.151 20.8L116.015 21.952C115.791 21.296 115.527 20.856 115.223 20.632C114.935 20.392 114.623 20.272 114.287 20.272C113.935 20.272 113.591 20.384 113.255 20.608C112.919 20.832 112.575 21.248 112.223 21.856V28.984C112.223 29.528 112.247 29.856 112.295 29.968C112.343 30.064 112.495 30.128 112.751 30.16L114.551 30.328V31H107.615V30.328L108.935 30.16C109.191 30.128 109.343 30.064 109.391 29.968C109.439 29.856 109.463 29.528 109.463 28.984V20.848C109.463 20.304 109.439 19.984 109.391 19.888C109.343 19.776 109.191 19.704 108.935 19.672L107.615 19.504ZM120.716 13.84L120.812 13.24H124.1L121.628 27.4C121.484 28.216 121.404 28.84 121.388 29.272C121.388 29.704 121.436 30.008 121.532 30.184C121.628 30.344 121.764 30.424 121.94 30.424C122.18 30.424 122.444 30.272 122.732 29.968C123.036 29.664 123.3 29.168 123.524 28.48L124.316 29.008C123.964 29.728 123.564 30.264 123.116 30.616C122.668 30.952 122.212 31.12 121.748 31.12C121.092 31.12 120.612 30.848 120.308 30.304C120.004 29.744 119.956 28.84 120.164 27.592L122.324 15.136C122.42 14.576 122.452 14.248 122.42 14.152C122.388 14.04 122.252 13.976 122.012 13.96L120.716 13.84ZM135.36 28.648C134.8 29.624 134.096 30.304 133.248 30.688C132.4 31.056 131.576 31.24 130.776 31.24C129.704 31.24 128.816 30.984 128.112 30.472C127.424 29.944 126.944 29.208 126.672 28.264C126.416 27.32 126.4 26.232 126.624 25L126.72 24.472C126.912 23.4 127.272 22.464 127.8 21.664C128.328 20.848 128.992 20.216 129.792 19.768C130.608 19.304 131.528 19.072 132.552 19.072C133.352 19.072 134.032 19.208 134.592 19.48C135.152 19.752 135.576 20.112 135.864 20.56C136.152 20.992 136.296 21.456 136.296 21.952C136.296 22.736 136.008 23.408 135.432 23.968C134.856 24.528 134.056 24.968 133.032 25.288C132.024 25.608 130.864 25.816 129.552 25.912L128.064 26.008C127.872 27.528 128.016 28.664 128.496 29.416C128.976 30.152 129.728 30.52 130.752 30.52C131.168 30.52 131.608 30.448 132.072 30.304C132.552 30.16 132.992 29.92 133.392 29.584C133.808 29.232 134.12 28.744 134.328 28.12L135.36 28.648ZM128.376 24.16L128.184 25.312L129.528 25.216C130.952 25.12 132.048 24.904 132.816 24.568C133.584 24.216 134.112 23.8 134.4 23.32C134.704 22.824 134.856 22.336 134.856 21.856C134.856 21.2 134.64 20.696 134.208 20.344C133.792 19.976 133.224 19.792 132.504 19.792C131.576 19.792 130.72 20.136 129.936 20.824C129.152 21.512 128.632 22.624 128.376 24.16ZM141.669 31.24C140.533 31.24 139.621 31 138.933 30.52C138.245 30.04 137.877 29.312 137.829 28.336L139.053 27.952C139.069 28.64 139.197 29.176 139.437 29.56C139.677 29.928 139.989 30.184 140.373 30.328C140.773 30.472 141.213 30.544 141.693 30.544C142.269 30.544 142.805 30.464 143.301 30.304C143.813 30.128 144.221 29.864 144.525 29.512C144.829 29.16 144.981 28.712 144.981 28.168C144.981 27.656 144.813 27.2 144.477 26.8C144.157 26.384 143.597 26.072 142.797 25.864L141.357 25.48C140.637 25.288 140.069 24.936 139.653 24.424C139.253 23.912 139.053 23.304 139.053 22.6C139.053 22.04 139.189 21.496 139.461 20.968C139.733 20.424 140.173 19.976 140.781 19.624C141.389 19.256 142.189 19.072 143.181 19.072C144.237 19.072 145.053 19.256 145.629 19.624C146.205 19.992 146.573 20.464 146.733 21.04C146.893 21.616 146.861 22.216 146.637 22.84L145.173 23.224C145.589 22.12 145.597 21.272 145.197 20.68C144.813 20.088 144.117 19.792 143.109 19.792C142.261 19.792 141.573 20 141.045 20.416C140.533 20.832 140.277 21.4 140.277 22.12C140.277 23.192 140.877 23.888 142.077 24.208L143.517 24.592C144.317 24.8 144.957 25.184 145.437 25.744C145.917 26.304 146.157 26.968 146.157 27.736C146.157 28.296 146.005 28.848 145.701 29.392C145.397 29.92 144.917 30.36 144.261 30.712C143.605 31.064 142.741 31.24 141.669 31.24ZM152.52 31.24C151.384 31.24 150.472 31 149.784 30.52C149.096 30.04 148.728 29.312 148.68 28.336L149.904 27.952C149.92 28.64 150.048 29.176 150.288 29.56C150.528 29.928 150.84 30.184 151.224 30.328C151.624 30.472 152.064 30.544 152.544 30.544C153.12 30.544 153.656 30.464 154.152 30.304C154.664 30.128 155.072 29.864 155.376 29.512C155.68 29.16 155.832 28.712 155.832 28.168C155.832 27.656 155.664 27.2 155.328 26.8C155.008 26.384 154.448 26.072 153.648 25.864L152.208 25.48C151.488 25.288 150.92 24.936 150.504 24.424C150.104 23.912 149.904 23.304 149.904 22.6C149.904 22.04 150.04 21.496 150.312 20.968C150.584 20.424 151.024 19.976 151.632 19.624C152.24 19.256 153.04 19.072 154.032 19.072C155.088 19.072 155.904 19.256 156.48 19.624C157.056 19.992 157.424 20.464 157.584 21.04C157.744 21.616 157.712 22.216 157.488 22.84L156.024 23.224C156.44 22.12 156.448 21.272 156.048 20.68C155.664 20.088 154.968 19.792 153.96 19.792C153.112 19.792 152.424 20 151.896 20.416C151.384 20.832 151.128 21.4 151.128 22.12C151.128 23.192 151.728 23.888 152.928 24.208L154.368 24.592C155.168 24.8 155.808 25.184 156.288 25.744C156.768 26.304 157.008 26.968 157.008 27.736C157.008 28.296 156.856 28.848 156.552 29.392C156.248 29.92 155.768 30.36 155.112 30.712C154.456 31.064 153.592 31.24 152.52 31.24ZM159.94 30.232C159.94 29.88 160.052 29.584 160.276 29.344C160.516 29.104 160.82 28.984 161.188 28.984C161.508 28.984 161.764 29.072 161.956 29.248C162.164 29.424 162.268 29.672 162.268 29.992C162.268 30.344 162.148 30.64 161.908 30.88C161.684 31.12 161.388 31.24 161.02 31.24C160.7 31.24 160.436 31.152 160.228 30.976C160.036 30.8 159.94 30.552 159.94 30.232Z" fill="currentColor"></path>
  <path d="M174.648 31.12C174.104 31.12 173.68 30.936 173.376 30.568C173.072 30.2 172.928 29.624 172.944 28.84C172.368 29.704 171.76 30.32 171.12 30.688C170.48 31.056 169.824 31.24 169.152 31.24C168.24 31.24 167.488 30.952 166.896 30.376C166.304 29.8 165.904 29.032 165.696 28.072C165.488 27.096 165.488 26.024 165.696 24.856L165.792 24.328C165.984 23.256 166.344 22.328 166.872 21.544C167.416 20.76 168.064 20.152 168.816 19.72C169.568 19.288 170.376 19.072 171.24 19.072C171.944 19.072 172.552 19.216 173.064 19.504C173.576 19.776 174 20.16 174.336 20.656C174.448 20.432 174.56 20.208 174.672 19.984C174.784 19.744 174.896 19.52 175.008 19.312H175.968L174.528 27.4C174.384 28.216 174.304 28.84 174.288 29.272C174.288 29.704 174.336 30.008 174.432 30.184C174.528 30.344 174.664 30.424 174.84 30.424C175.08 30.424 175.344 30.272 175.632 29.968C175.936 29.664 176.2 29.168 176.424 28.48L177.216 29.008C176.864 29.728 176.464 30.264 176.016 30.616C175.568 30.952 175.112 31.12 174.648 31.12ZM167.184 25.576C166.928 27.08 167 28.28 167.4 29.176C167.816 30.072 168.44 30.52 169.272 30.52C169.64 30.52 170.032 30.432 170.448 30.256C170.864 30.08 171.296 29.76 171.744 29.296C172.192 28.816 172.648 28.136 173.112 27.256L174.096 21.76C173.792 21.088 173.416 20.592 172.968 20.272C172.52 19.952 171.952 19.792 171.264 19.792C170.224 19.792 169.376 20.176 168.72 20.944C168.08 21.712 167.648 22.776 167.424 24.136L167.184 25.576ZM182.931 16.192C182.627 16.192 182.387 16.112 182.211 15.952C182.035 15.776 181.947 15.536 181.947 15.232C181.947 14.896 182.059 14.608 182.283 14.368C182.523 14.128 182.819 14.008 183.171 14.008C183.491 14.008 183.739 14.096 183.915 14.272C184.091 14.432 184.179 14.656 184.179 14.944C184.179 15.264 184.059 15.552 183.819 15.808C183.595 16.064 183.299 16.192 182.931 16.192ZM179.667 19.912L179.763 19.312H183.051L181.635 27.4C181.491 28.216 181.411 28.84 181.395 29.272C181.395 29.704 181.443 30.008 181.539 30.184C181.635 30.344 181.771 30.424 181.947 30.424C182.187 30.424 182.451 30.272 182.739 29.968C183.043 29.664 183.307 29.168 183.531 28.48L184.323 29.008C183.971 29.728 183.571 30.264 183.123 30.616C182.675 30.952 182.219 31.12 181.755 31.12C181.099 31.12 180.619 30.848 180.315 30.304C180.011 29.744 179.963 28.84 180.171 27.592L181.275 21.208C181.371 20.648 181.403 20.32 181.371 20.224C181.339 20.112 181.203 20.048 180.963 20.032L179.667 19.912Z" fill="currentColor" fill-opacity="0.5"></path>
</svg>
