<svg class="logo" width="32" height="32" viewBox="0 0 36 36" fill="currentColor" xmlns="http://www.w3.org/2000/svg">
  <path d="M40.0866 4.68482C38.2902 3.5825 35.863 3 33.0672 3C28.7842 3 24.0653 4.35865 19.8276 6.72206L19.7979 6.71083C19.7979 6.71083 19.7937 6.73344 19.7914 6.74423C18.5086 7.4617 17.2656 8.2629 16.0981 9.15731C9.22112 14.4248 7.29519 20.6748 8.92004 24.0156C7.14142 27.0728 6.0457 30.2332 6 33.9767C9.41949 27.421 11.4719 22.108 22.6146 13.1637C19.4309 13.8501 13.9281 17.1057 10.2271 22.0459C9.87793 19.156 12.1477 14.4895 17.2033 10.6174C17.8435 10.127 18.5092 9.66864 19.1886 9.23374C18.6577 10.8934 18.8269 10.4806 17.7254 12.8076C19.3543 11.2566 20.4268 10.2995 22.035 7.64145C24.123 6.60964 26.2948 5.83844 28.4482 5.37235C28.0919 6.56071 27.4137 8.57466 26.4955 10.1669C26.4955 10.1669 28.8258 9.66435 30.7518 9.77788C29.6995 10.9459 28.7527 12.2094 27.7926 13.5012C26.4777 15.2696 25.1184 17.0983 23.3778 18.8005C23.1683 19.0054 22.968 19.1912 22.7649 19.383C20.0902 19.1254 18.3235 20.1315 16.6683 21.9089C17.9737 21.2966 19.7273 20.7924 20.8266 21.0959C18.8008 22.7579 15.6106 24.9488 12.9893 24.7684C12.4922 25.5295 12.4608 25.5528 11.9144 26.4722C16.1664 27.537 21.507 23.1905 24.6498 20.1161C26.4926 18.3131 27.8964 16.4257 29.2534 14.6012C32.0481 10.8427 34.4616 7.5974 39.8153 6.3624L42 5.85877L40.0866 4.68482Z" class="logo-mark"></path>
</svg>
